<svg width="49" height="58" viewBox="0 0 49 58" fill="none" xmlns="http://www.w3.org/2000/svg">
<path d="M4.06025 42.976C5.72425 42.976 7.05758 43.3653 8.06025 44.144C9.07358 44.912 9.58025 46.3413 9.58025 48.432C9.58025 50.4693 9.07358 51.9093 8.06025 52.752C7.05758 53.584 5.83625 54 4.39625 54H1.75625V42.976H4.06025ZM3.27625 44.192V52.8H4.50825C5.53225 52.8 6.36425 52.4853 7.00425 51.856C7.64425 51.2267 7.96425 50.0853 7.96425 48.432C7.96425 47.2693 7.79892 46.3787 7.46825 45.76C7.13758 45.1307 6.71625 44.7147 6.20425 44.512C5.69225 44.2987 5.08958 44.192 4.39625 44.192H3.27625ZM18.3411 49.536C18.3411 49.7813 18.3305 50.032 18.3091 50.288H12.9331C12.9971 51.216 13.2318 51.8987 13.6371 52.336C14.0425 52.7733 14.5651 52.992 15.2051 52.992C15.6105 52.992 15.9838 52.9333 16.3251 52.816C16.6665 52.6987 17.0238 52.512 17.3971 52.256L18.0371 53.136C17.1411 53.84 16.1598 54.192 15.0931 54.192C13.9198 54.192 13.0025 53.808 12.3411 53.04C11.6905 52.272 11.3651 51.216 11.3651 49.872C11.3651 48.9973 11.5038 48.224 11.7811 47.552C12.0691 46.8693 12.4745 46.336 12.9971 45.952C13.5305 45.568 14.1545 45.376 14.8691 45.376C15.9891 45.376 16.8478 45.744 17.4451 46.48C18.0425 47.216 18.3411 48.2347 18.3411 49.536ZM16.8851 49.104C16.8851 48.272 16.7198 47.6373 16.3891 47.2C16.0585 46.7627 15.5625 46.544 14.9011 46.544C13.6958 46.544 13.0398 47.4293 12.9331 49.2H16.8851V49.104ZM22.9799 45.376C23.5559 45.376 24.0732 45.456 24.5319 45.616C24.9905 45.776 25.4279 46.016 25.8439 46.336L25.2199 47.264C24.8359 47.0187 24.4679 46.8373 24.1159 46.72C23.7745 46.6027 23.4119 46.544 23.0279 46.544C22.5479 46.544 22.1692 46.6453 21.8919 46.848C21.6145 47.04 21.4759 47.3067 21.4759 47.648C21.4759 47.9893 21.6039 48.256 21.8599 48.448C22.1265 48.64 22.6012 48.8267 23.2839 49.008C24.2225 49.2427 24.9212 49.5627 25.3799 49.968C25.8492 50.3733 26.0839 50.928 26.0839 51.632C26.0839 52.464 25.7585 53.0987 25.1079 53.536C24.4679 53.9733 23.6839 54.192 22.7559 54.192C21.4759 54.192 20.4145 53.824 19.5719 53.088L20.3559 52.192C21.0705 52.736 21.8599 53.008 22.7239 53.008C23.2785 53.008 23.7159 52.896 24.0359 52.672C24.3665 52.4373 24.5319 52.1227 24.5319 51.728C24.5319 51.44 24.4732 51.2107 24.3559 51.04C24.2385 50.8587 24.0359 50.704 23.7479 50.576C23.4599 50.4373 23.0385 50.2933 22.4839 50.144C21.5879 49.9093 20.9372 49.5947 20.5319 49.2C20.1372 48.8053 19.9399 48.304 19.9399 47.696C19.9399 47.2587 20.0679 46.864 20.3239 46.512C20.5905 46.1493 20.9532 45.872 21.4119 45.68C21.8812 45.4773 22.4039 45.376 22.9799 45.376ZM29.6326 45.568V54H28.1606V45.568H29.6326ZM28.8806 41.52C29.19 41.52 29.4406 41.616 29.6326 41.808C29.8246 42 29.9206 42.24 29.9206 42.528C29.9206 42.816 29.8246 43.056 29.6326 43.248C29.4406 43.4293 29.19 43.52 28.8806 43.52C28.582 43.52 28.3366 43.4293 28.1446 43.248C27.9526 43.056 27.8566 42.816 27.8566 42.528C27.8566 42.24 27.9526 42 28.1446 41.808C28.3366 41.616 28.582 41.52 28.8806 41.52ZM39.4763 45.952C39.1563 46.0587 38.8043 46.128 38.4203 46.16C38.0363 46.192 37.5669 46.208 37.0123 46.208C38.0043 46.656 38.5003 47.3653 38.5003 48.336C38.5003 49.1787 38.2123 49.8667 37.6363 50.4C37.0603 50.9333 36.2763 51.2 35.2843 51.2C34.9003 51.2 34.5429 51.1467 34.2123 51.04C34.0843 51.1253 33.9829 51.2427 33.9083 51.392C33.8336 51.5307 33.7963 51.6747 33.7963 51.824C33.7963 52.2827 34.1643 52.512 34.9003 52.512H36.2443C36.8096 52.512 37.3109 52.6133 37.7483 52.816C38.1856 53.0187 38.5216 53.296 38.7563 53.648C39.0016 54 39.1243 54.4 39.1243 54.848C39.1243 55.6693 38.7883 56.2987 38.1163 56.736C37.4443 57.184 36.4629 57.408 35.1723 57.408C34.2656 57.408 33.5456 57.312 33.0123 57.12C32.4896 56.9387 32.1163 56.6613 31.8923 56.288C31.6683 55.9147 31.5563 55.4347 31.5563 54.848H32.8843C32.8843 55.1893 32.9483 55.456 33.0763 55.648C33.2043 55.8507 33.4336 56 33.7643 56.096C34.0949 56.2027 34.5643 56.256 35.1723 56.256C36.0576 56.256 36.6869 56.144 37.0603 55.92C37.4443 55.7067 37.6363 55.3813 37.6363 54.944C37.6363 54.5493 37.4869 54.2507 37.1883 54.048C36.8896 53.8453 36.4736 53.744 35.9403 53.744H34.6123C33.8976 53.744 33.3536 53.5947 32.9803 53.296C32.6176 52.9867 32.4363 52.6027 32.4363 52.144C32.4363 51.8667 32.5163 51.6 32.6763 51.344C32.8363 51.088 33.0656 50.8587 33.3643 50.656C32.8736 50.4 32.5109 50.0853 32.2763 49.712C32.0523 49.328 31.9403 48.864 31.9403 48.32C31.9403 47.7547 32.0789 47.248 32.3563 46.8C32.6443 46.352 33.0336 46.0053 33.5243 45.76C34.0256 45.504 34.5803 45.376 35.1883 45.376C35.8496 45.3867 36.4043 45.3653 36.8523 45.312C37.3003 45.248 37.6683 45.168 37.9563 45.072C38.2549 44.9653 38.6176 44.816 39.0443 44.624L39.4763 45.952ZM35.1883 46.432C34.6336 46.432 34.2016 46.608 33.8923 46.96C33.5936 47.3013 33.4443 47.7547 33.4443 48.32C33.4443 48.896 33.5989 49.36 33.9083 49.712C34.2176 50.0533 34.6549 50.224 35.2203 50.224C35.7963 50.224 36.2336 50.0587 36.5323 49.728C36.8416 49.3867 36.9963 48.912 36.9963 48.304C36.9963 47.056 36.3936 46.432 35.1883 46.432ZM44.9568 45.376C45.7248 45.376 46.3221 45.6053 46.7488 46.064C47.1861 46.5227 47.4048 47.152 47.4048 47.952V54H45.9328V48.16C45.9328 47.5627 45.8208 47.1413 45.5968 46.896C45.3728 46.6507 45.0421 46.528 44.6048 46.528C44.1568 46.528 43.7621 46.656 43.4208 46.912C43.0794 47.168 42.7594 47.536 42.4608 48.016V54H40.9888V45.568H42.2528L42.3808 46.816C42.6794 46.368 43.0474 46.016 43.4848 45.76C43.9328 45.504 44.4234 45.376 44.9568 45.376Z" fill="#111238"/>
<path d="M31 0H17C15.6744 0.00158786 14.4036 0.528882 13.4662 1.46622C12.5289 2.40356 12.0016 3.67441 12 5L12 10C12.0024 11.8558 12.7406 13.6349 14.0529 14.9471C15.3651 16.2594 17.1442 16.9976 19 17H21V21C21 21.7956 21.3161 22.5587 21.8787 23.1213C22.4413 23.6839 23.2044 24 24 24C24.7956 24 25.5587 23.6839 26.1213 23.1213C26.6839 22.5587 27 21.7956 27 21V17H29C30.8558 16.9976 32.6349 16.2594 33.9471 14.9471C35.2594 13.6349 35.9976 11.8558 36 10V5C35.9984 3.67441 35.4711 2.40356 34.5338 1.46622C33.5964 0.528882 32.3256 0.00158786 31 0V0ZM14 5C14 4.20435 14.3161 3.44129 14.8787 2.87868C15.4413 2.31607 16.2044 2 17 2H22V3C22 3.26522 22.1054 3.51957 22.2929 3.70711C22.4804 3.89464 22.7348 4 23 4C23.2652 4 23.5196 3.89464 23.7071 3.70711C23.8946 3.51957 24 3.26522 24 3V2H26V5C26 5.26522 26.1054 5.51957 26.2929 5.70711C26.4804 5.89464 26.7348 6 27 6C27.2652 6 27.5196 5.89464 27.7071 5.70711C27.8946 5.51957 28 5.26522 28 5V2H30V7C30 7.26522 30.1054 7.51957 30.2929 7.70711C30.4804 7.89464 30.7348 8 31 8C31.2652 8 31.5196 7.89464 31.7071 7.70711C31.8946 7.51957 32 7.26522 32 7V2.184C32.5829 2.39008 33.0879 2.77123 33.4459 3.2753C33.8039 3.77937 33.9974 4.38174 34 5V10H14V5ZM29 15H26C25.7348 15 25.4804 15.1054 25.2929 15.2929C25.1054 15.4804 25 15.7348 25 16V21C25 21.2652 24.8946 21.5196 24.7071 21.7071C24.5196 21.8946 24.2652 22 24 22C23.7348 22 23.4804 21.8946 23.2929 21.7071C23.1054 21.5196 23 21.2652 23 21V16C23 15.7348 22.8946 15.4804 22.7071 15.2929C22.5196 15.1054 22.2652 15 22 15H19C18.0282 14.9987 17.0779 14.7143 16.2652 14.1815C15.4525 13.6487 14.8127 12.8906 14.424 12H33.576C33.1873 12.8906 32.5475 13.6487 31.7348 14.1815C30.9221 14.7143 29.9718 14.9987 29 15Z" fill="#111238"/>
</svg>
