<svg width="74" height="59" viewBox="0 0 74 59" fill="none" xmlns="http://www.w3.org/2000/svg">
<g clip-path="url(#clip0_8_268)">
<path d="M44 6.00165H39.321C38.9224 5.71757 38.4744 5.51004 38 5.38965V5.00165L41.53 3.34965C41.6747 3.25997 41.7941 3.13483 41.8769 2.98608C41.9598 2.83733 42.0032 2.6699 42.0032 2.49965C42.0032 2.32941 41.9598 2.16198 41.8769 2.01323C41.7941 1.86448 41.6747 1.73934 41.53 1.64965L38.33 0.149653C38.0802 0.0329054 37.8049 -0.01883 37.5297 -0.000750548C37.2545 0.0173289 36.9883 0.104637 36.7559 0.25307C36.5235 0.401503 36.3323 0.606249 36.2002 0.848304C36.068 1.09036 35.9992 1.36188 36 1.63765V5.38965C35.5258 5.50987 35.0782 5.71742 34.68 6.00165H30C28.6744 6.00324 27.4036 6.53054 26.4662 7.46787C25.5289 8.40521 25.0016 9.67606 25 11.0017V21.0017C25 21.7973 25.3161 22.5604 25.8787 23.123C26.4413 23.6856 27.2044 24.0017 28 24.0017H46C46.7956 24.0017 47.5587 23.6856 48.1213 23.123C48.6839 22.5604 49 21.7973 49 21.0017V11.0017C48.9984 9.67606 48.4711 8.40521 47.5338 7.46787C46.5964 6.53054 45.3256 6.00324 44 6.00165ZM46.816 10.0017H44.657C43.8618 9.99963 43.0995 9.68373 42.536 9.12265L41.414 8.00165H44C44.6183 8.00422 45.2206 8.19774 45.7247 8.55574C46.2288 8.91374 46.6099 9.41875 46.816 10.0017ZM30 8.00165H32.586L31.464 9.12265C30.9005 9.68373 30.1382 9.99963 29.343 10.0017H27.184C27.3901 9.41875 27.7712 8.91374 28.2753 8.55574C28.7794 8.19774 29.3817 8.00422 30 8.00165ZM38 22.0017H36V19.0017C36 18.7364 36.1054 18.4821 36.2929 18.2945C36.4804 18.107 36.7348 18.0017 37 18.0017C37.2652 18.0017 37.5196 18.107 37.7071 18.2945C37.8946 18.4821 38 18.7364 38 19.0017V22.0017ZM46 22.0017H40V19.0017C40 18.206 39.6839 17.4429 39.1213 16.8803C38.5587 16.3177 37.7956 16.0017 37 16.0017C36.2044 16.0017 35.4413 16.3177 34.8787 16.8803C34.3161 17.4429 34 18.206 34 19.0017V22.0017H28C27.7348 22.0017 27.4804 21.8963 27.2929 21.7088C27.1054 21.5212 27 21.2669 27 21.0017V12.0017H29.343C29.9998 12.0033 30.6504 11.8746 31.2572 11.6232C31.864 11.3717 32.4149 11.0024 32.878 10.5367L35.586 7.82965C35.9611 7.45471 36.4697 7.24408 37 7.24408C37.5303 7.24408 38.0389 7.45471 38.414 7.82965L41.122 10.5367C41.5851 11.0024 42.136 11.3717 42.7428 11.6232C43.3496 11.8746 44.0002 12.0033 44.657 12.0017H47V21.0017C47 21.2669 46.8946 21.5212 46.7071 21.7088C46.5196 21.8963 46.2652 22.0017 46 22.0017ZM32 15.0017C32 15.2669 31.8946 15.5212 31.7071 15.7088C31.5196 15.8963 31.2652 16.0017 31 16.0017H30C29.7348 16.0017 29.4804 15.8963 29.2929 15.7088C29.1054 15.5212 29 15.2669 29 15.0017C29 14.7364 29.1054 14.4821 29.2929 14.2945C29.4804 14.107 29.7348 14.0017 30 14.0017H31C31.2652 14.0017 31.5196 14.107 31.7071 14.2945C31.8946 14.4821 32 14.7364 32 15.0017ZM32 19.0017C32 19.2669 31.8946 19.5212 31.7071 19.7088C31.5196 19.8963 31.2652 20.0017 31 20.0017H30C29.7348 20.0017 29.4804 19.8963 29.2929 19.7088C29.1054 19.5212 29 19.2669 29 19.0017C29 18.7364 29.1054 18.4821 29.2929 18.2945C29.4804 18.107 29.7348 18.0017 30 18.0017H31C31.2652 18.0017 31.5196 18.107 31.7071 18.2945C31.8946 18.4821 32 18.7364 32 19.0017ZM45 15.0017C45 15.2669 44.8946 15.5212 44.7071 15.7088C44.5196 15.8963 44.2652 16.0017 44 16.0017H43C42.7348 16.0017 42.4804 15.8963 42.2929 15.7088C42.1054 15.5212 42 15.2669 42 15.0017C42 14.7364 42.1054 14.4821 42.2929 14.2945C42.4804 14.107 42.7348 14.0017 43 14.0017H44C44.2652 14.0017 44.5196 14.107 44.7071 14.2945C44.8946 14.4821 45 14.7364 45 15.0017ZM45 19.0017C45 19.2669 44.8946 19.5212 44.7071 19.7088C44.5196 19.8963 44.2652 20.0017 44 20.0017H43C42.7348 20.0017 42.4804 19.8963 42.2929 19.7088C42.1054 19.5212 42 19.2669 42 19.0017C42 18.7364 42.1054 18.4821 42.2929 18.2945C42.4804 18.107 42.7348 18.0017 43 18.0017H44C44.2652 18.0017 44.5196 18.107 44.7071 18.2945C44.8946 18.4821 45 18.7364 45 19.0017ZM39 12.0017C39 12.3972 38.8827 12.7839 38.6629 13.1128C38.4432 13.4417 38.1308 13.698 37.7654 13.8494C37.3999 14.0008 36.9978 14.0404 36.6098 13.9632C36.2219 13.8861 35.8655 13.6956 35.5858 13.4159C35.3061 13.1362 35.1156 12.7798 35.0384 12.3918C34.9613 12.0039 35.0009 11.6017 35.1522 11.2363C35.3036 10.8708 35.56 10.5585 35.8889 10.3387C36.2178 10.119 36.6044 10.0017 37 10.0017C37.5304 10.0017 38.0391 10.2124 38.4142 10.5874C38.7893 10.9625 39 11.4712 39 12.0017Z" fill="#111238"/>
</g>
<path d="M8.40394 42.9777L8.22794 44.1937H3.95594V47.7937H7.66794V49.0097H3.95594V52.7857H8.53194V54.0017H2.43594V42.9777H8.40394ZM17.1339 42.1777V54.0017H15.8379L15.6939 52.8337C15.4166 53.2604 15.0699 53.5964 14.6539 53.8417C14.2379 54.0764 13.7739 54.1937 13.2619 54.1937C12.2593 54.1937 11.4753 53.799 10.9099 53.0097C10.3553 52.2204 10.0779 51.159 10.0779 49.8257C10.0779 48.9617 10.2113 48.1937 10.4779 47.5217C10.7446 46.8497 11.1286 46.327 11.6299 45.9537C12.1313 45.5697 12.7179 45.3777 13.3899 45.3777C14.2539 45.3777 15.0113 45.7244 15.6619 46.4177V42.0017L17.1339 42.1777ZM13.5819 53.0257C14.0299 53.0257 14.4139 52.9244 14.7339 52.7217C15.0539 52.5084 15.3633 52.1937 15.6619 51.7777V47.6497C15.3846 47.287 15.0859 47.015 14.7659 46.8337C14.4566 46.6417 14.1046 46.5457 13.7099 46.5457C13.0593 46.5457 12.5526 46.8177 12.1899 47.3617C11.8379 47.9057 11.6619 48.7164 11.6619 49.7937C11.6619 50.8817 11.8273 51.6924 12.1579 52.2257C12.4886 52.759 12.9633 53.0257 13.5819 53.0257ZM26.4404 54.0017H25.1764L25.0644 52.6897C24.7444 53.2124 24.3764 53.5964 23.9604 53.8417C23.5444 54.0764 23.0378 54.1937 22.4404 54.1937C21.7044 54.1937 21.1284 53.9697 20.7124 53.5217C20.2964 53.0737 20.0884 52.439 20.0884 51.6177V45.5697H21.5604V51.4577C21.5604 52.0337 21.6618 52.4444 21.8644 52.6897C22.0671 52.9244 22.3978 53.0417 22.8564 53.0417C23.6778 53.0417 24.3818 52.5564 24.9684 51.5857V45.5697H26.4404V54.0017ZM32.5529 45.3777C33.0543 45.3777 33.5129 45.4524 33.9289 45.6017C34.3449 45.7404 34.7449 45.9697 35.1289 46.2897L34.4249 47.2177C34.1263 47.0044 33.8329 46.8497 33.5449 46.7537C33.2676 46.647 32.9583 46.5937 32.6169 46.5937C31.9343 46.5937 31.4009 46.8657 31.0169 47.4097C30.6436 47.9537 30.4569 48.759 30.4569 49.8257C30.4569 50.8924 30.6436 51.6817 31.0169 52.1937C31.3903 52.695 31.9236 52.9457 32.6169 52.9457C32.9476 52.9457 33.2516 52.8977 33.5289 52.8017C33.8063 52.695 34.1156 52.5297 34.4569 52.3057L35.1289 53.2657C34.3609 53.8844 33.5023 54.1937 32.5529 54.1937C31.4116 54.1937 30.5103 53.8097 29.8489 53.0417C29.1983 52.2737 28.8729 51.2124 28.8729 49.8577C28.8729 48.9617 29.0223 48.1777 29.3209 47.5057C29.6196 46.8337 30.0409 46.311 30.5849 45.9377C31.1396 45.5644 31.7956 45.3777 32.5529 45.3777ZM42.6453 52.0337C42.6453 52.375 42.704 52.631 42.8213 52.8017C42.9386 52.9617 43.1146 53.0844 43.3493 53.1697L43.0133 54.1937C42.576 54.1404 42.224 54.0177 41.9573 53.8257C41.6906 53.6337 41.4933 53.335 41.3653 52.9297C40.8 53.7724 39.9626 54.1937 38.8533 54.1937C38.0213 54.1937 37.3653 53.959 36.8853 53.4897C36.4053 53.0204 36.1653 52.407 36.1653 51.6497C36.1653 50.7537 36.4853 50.0657 37.1253 49.5857C37.776 49.1057 38.6933 48.8657 39.8773 48.8657H41.1733V48.2417C41.1733 47.6444 41.0293 47.2177 40.7413 46.9617C40.4533 46.7057 40.0106 46.5777 39.4133 46.5777C38.7946 46.5777 38.0373 46.727 37.1413 47.0257L36.7733 45.9537C37.8186 45.5697 38.7893 45.3777 39.6853 45.3777C40.6773 45.3777 41.4186 45.623 41.9093 46.1137C42.4 46.5937 42.6453 47.2817 42.6453 48.1777V52.0337ZM39.1893 53.0897C40.032 53.0897 40.6933 52.6524 41.1733 51.7777V49.8417H40.0693C38.512 49.8417 37.7333 50.4177 37.7333 51.5697C37.7333 52.071 37.856 52.4497 38.1013 52.7057C38.3466 52.9617 38.7093 53.0897 39.1893 53.0897ZM49.9244 53.6177C49.3698 54.0017 48.7404 54.1937 48.0364 54.1937C47.3218 54.1937 46.7618 53.991 46.3564 53.5857C45.9618 53.1697 45.7644 52.5724 45.7644 51.7937V46.7057H44.2924V45.5697H45.7644V43.6657L47.2364 43.4897V45.5697H49.2364L49.0764 46.7057H47.2364V51.7297C47.2364 52.167 47.3111 52.487 47.4604 52.6897C47.6204 52.8817 47.8818 52.9777 48.2444 52.9777C48.5751 52.9777 48.9484 52.8657 49.3644 52.6417L49.9244 53.6177ZM52.9217 45.5697V54.0017H51.4497V45.5697H52.9217ZM52.1697 41.5217C52.479 41.5217 52.7297 41.6177 52.9217 41.8097C53.1137 42.0017 53.2097 42.2417 53.2097 42.5297C53.2097 42.8177 53.1137 43.0577 52.9217 43.2497C52.7297 43.431 52.479 43.5217 52.1697 43.5217C51.871 43.5217 51.6257 43.431 51.4337 43.2497C51.2417 43.0577 51.1457 42.8177 51.1457 42.5297C51.1457 42.2417 51.2417 42.0017 51.4337 41.8097C51.6257 41.6177 51.871 41.5217 52.1697 41.5217ZM59.1333 45.3777C60.3173 45.3777 61.2346 45.7724 61.8853 46.5617C62.5466 47.351 62.8773 48.423 62.8773 49.7777C62.8773 50.6524 62.728 51.4257 62.4293 52.0977C62.1306 52.759 61.6986 53.2764 61.1333 53.6497C60.568 54.0124 59.896 54.1937 59.1173 54.1937C57.9333 54.1937 57.0106 53.799 56.3493 53.0097C55.688 52.2204 55.3573 51.1484 55.3573 49.7937C55.3573 48.919 55.5066 48.151 55.8053 47.4897C56.104 46.8177 56.536 46.3004 57.1013 45.9377C57.6666 45.5644 58.344 45.3777 59.1333 45.3777ZM59.1333 46.5617C57.672 46.5617 56.9413 47.639 56.9413 49.7937C56.9413 51.9377 57.6666 53.0097 59.1173 53.0097C60.568 53.0097 61.2933 51.9324 61.2933 49.7777C61.2933 47.6337 60.5733 46.5617 59.1333 46.5617ZM69.2771 45.3777C70.0451 45.3777 70.6424 45.607 71.0691 46.0657C71.5064 46.5244 71.7251 47.1537 71.7251 47.9537V54.0017H70.2531V48.1617C70.2531 47.5644 70.1411 47.143 69.9171 46.8977C69.6931 46.6524 69.3624 46.5297 68.9251 46.5297C68.4771 46.5297 68.0824 46.6577 67.7411 46.9137C67.3997 47.1697 67.0797 47.5377 66.7811 48.0177V54.0017H65.3091V45.5697H66.5731L66.7011 46.8177C66.9997 46.3697 67.3677 46.0177 67.8051 45.7617C68.2531 45.5057 68.7437 45.3777 69.2771 45.3777Z" fill="#111238"/>
<defs>
<clipPath id="clip0_8_268">
<rect width="24" height="24" fill="white" transform="translate(25 0.00170898)"/>
</clipPath>
</defs>
</svg>
