<svg width="86" height="58" viewBox="0 0 86 58" fill="none" xmlns="http://www.w3.org/2000/svg">
<g clip-path="url(#clip0_8_253)">
<path d="M49.656 0.930011L37.464 13.122C36.9984 13.5852 36.6292 14.1361 36.3779 14.7429C36.1266 15.3496 35.9982 16.0002 36 16.657V18C36 18.2652 36.1054 18.5196 36.2929 18.7071C36.4804 18.8947 36.7348 19 37 19H38.343C38.9998 19.0019 39.6504 18.8734 40.2572 18.6221C40.864 18.3708 41.4149 18.0017 41.878 17.536L54.07 5.34401C54.6544 4.75818 54.9826 3.96449 54.9826 3.13701C54.9826 2.30954 54.6544 1.51584 54.07 0.930011C53.4757 0.361905 52.6852 0.0448608 51.863 0.0448608C51.0408 0.0448608 50.2503 0.361905 49.656 0.930011ZM52.656 3.93001L40.464 16.122C39.9001 16.6824 39.138 16.9979 38.343 17H38V16.657C38.0021 15.862 38.3176 15.0999 38.878 14.536L51.07 2.34401C51.2836 2.13997 51.5676 2.0261 51.863 2.0261C52.1584 2.0261 52.4424 2.13997 52.656 2.34401C52.866 2.55453 52.9839 2.8397 52.9839 3.13701C52.9839 3.43432 52.866 3.7195 52.656 3.93001Z" fill="#111238"/>
<path d="M54 8.979C53.7348 8.979 53.4804 9.08436 53.2929 9.27189C53.1054 9.45943 53 9.71378 53 9.979V15H49C48.2044 15 47.4413 15.3161 46.8787 15.8787C46.3161 16.4413 46 17.2044 46 18V22H36C35.2044 22 34.4413 21.6839 33.8787 21.1213C33.3161 20.5587 33 19.7956 33 19V5C33 4.20435 33.3161 3.44129 33.8787 2.87868C34.4413 2.31607 35.2044 2 36 2H45.042C45.3072 2 45.5616 1.89464 45.7491 1.70711C45.9366 1.51957 46.042 1.26522 46.042 1C46.042 0.734784 45.9366 0.48043 45.7491 0.292893C45.5616 0.105357 45.3072 0 45.042 0L36 0C34.6744 0.00158786 33.4036 0.528882 32.4662 1.46622C31.5289 2.40356 31.0016 3.67441 31 5V19C31.0016 20.3256 31.5289 21.5964 32.4662 22.5338C33.4036 23.4711 34.6744 23.9984 36 24H47.343C47.9999 24.0019 48.6507 23.8735 49.2576 23.6222C49.8646 23.3709 50.4157 23.0017 50.879 22.536L53.535 19.878C54.0007 19.4149 54.37 18.864 54.6215 18.2572C54.873 17.6504 55.0016 16.9998 55 16.343V9.979C55 9.71378 54.8946 9.45943 54.7071 9.27189C54.5196 9.08436 54.2652 8.979 54 8.979ZM49.465 21.122C49.063 21.523 48.5547 21.8006 48 21.922V18C48 17.7348 48.1054 17.4804 48.2929 17.2929C48.4804 17.1054 48.7348 17 49 17H52.925C52.8013 17.5535 52.524 18.0609 52.125 18.464L49.465 21.122Z" fill="#111238"/>
</g>
<path d="M5.73725 42.784C6.39858 42.784 6.95325 42.8693 7.40125 43.04C7.85992 43.2107 8.32392 43.488 8.79325 43.872L7.96125 44.848C7.28925 44.304 6.57992 44.032 5.83325 44.032C4.91592 44.032 4.17458 44.384 3.60925 45.088C3.05458 45.792 2.77725 46.9227 2.77725 48.48C2.77725 49.9947 3.05458 51.1147 3.60925 51.84C4.16392 52.5547 4.89992 52.912 5.81725 52.912C6.28658 52.912 6.69725 52.832 7.04925 52.672C7.40125 52.512 7.77458 52.288 8.16925 52L8.92125 52.96C8.57992 53.312 8.14258 53.6053 7.60925 53.84C7.07592 54.0747 6.46258 54.192 5.76925 54.192C4.87325 54.192 4.07325 53.9733 3.36925 53.536C2.67592 53.088 2.13192 52.4373 1.73725 51.584C1.35325 50.72 1.16125 49.6853 1.16125 48.48C1.16125 47.2747 1.36392 46.2453 1.76925 45.392C2.17458 44.528 2.72392 43.8773 3.41725 43.44C4.11058 43.0027 4.88392 42.784 5.73725 42.784ZM13.6099 45.376C14.7939 45.376 15.7112 45.7707 16.3619 46.56C17.0232 47.3493 17.3539 48.4213 17.3539 49.776C17.3539 50.6507 17.2045 51.424 16.9059 52.096C16.6072 52.7573 16.1752 53.2747 15.6099 53.648C15.0445 54.0107 14.3725 54.192 13.5939 54.192C12.4099 54.192 11.4872 53.7973 10.8259 53.008C10.1645 52.2187 9.83388 51.1467 9.83388 49.792C9.83388 48.9173 9.98321 48.1493 10.2819 47.488C10.5805 46.816 11.0125 46.2987 11.5779 45.936C12.1432 45.5627 12.8205 45.376 13.6099 45.376ZM13.6099 46.56C12.1485 46.56 11.4179 47.6373 11.4179 49.792C11.4179 51.936 12.1432 53.008 13.5939 53.008C15.0445 53.008 15.7699 51.9307 15.7699 49.776C15.7699 47.632 15.0499 46.56 13.6099 46.56ZM23.6576 45.376C24.735 45.376 25.5243 45.76 26.0256 46.528C26.527 47.296 26.7776 48.3787 26.7776 49.776C26.7776 51.0987 26.4896 52.1653 25.9136 52.976C25.3376 53.7867 24.5216 54.192 23.4656 54.192C22.527 54.192 21.791 53.872 21.2576 53.232V57.232L19.7856 57.408V45.568H21.0496L21.1616 46.704C21.471 46.2773 21.8443 45.952 22.2816 45.728C22.719 45.4933 23.1776 45.376 23.6576 45.376ZM23.1136 52.992C24.5003 52.992 25.1936 51.92 25.1936 49.776C25.1936 47.6213 24.559 46.544 23.2896 46.544C22.8736 46.544 22.495 46.6667 22.1536 46.912C21.8123 47.1573 21.5136 47.472 21.2576 47.856V51.968C21.471 52.2987 21.7376 52.5547 22.0576 52.736C22.3776 52.9067 22.7296 52.992 23.1136 52.992ZM32.5991 54.048C32.2685 55.0293 31.8045 55.8027 31.2071 56.368C30.6205 56.944 29.7778 57.2907 28.6791 57.408L28.5191 56.256C29.0738 56.16 29.5165 56.0213 29.8471 55.84C30.1778 55.6587 30.4391 55.424 30.6311 55.136C30.8338 54.8587 31.0205 54.48 31.1911 54H30.6951L27.8631 45.568H29.4311L31.6871 52.928L33.8951 45.568H35.4151L32.5991 54.048ZM46.7301 45.568L44.8101 54H42.8101L41.3381 46.896L39.8181 54H37.8661L35.8981 45.568H37.3701L38.8901 52.976L40.5541 45.568H42.2021L43.7861 52.976L45.3221 45.568H46.7301ZM52.2309 45.376C52.5295 45.376 52.8069 45.408 53.0629 45.472L52.7909 46.912C52.5349 46.848 52.2895 46.816 52.0549 46.816C51.5322 46.816 51.1109 47.008 50.7909 47.392C50.4709 47.776 50.2202 48.3733 50.0389 49.184V54H48.5669V45.568H49.8309L49.9749 47.28C50.1989 46.6507 50.5029 46.176 50.8869 45.856C51.2709 45.536 51.7189 45.376 52.2309 45.376ZM56.2108 45.568V54H54.7388V45.568H56.2108ZM55.4588 41.52C55.7681 41.52 56.0188 41.616 56.2108 41.808C56.4028 42 56.4988 42.24 56.4988 42.528C56.4988 42.816 56.4028 43.056 56.2108 43.248C56.0188 43.4293 55.7681 43.52 55.4588 43.52C55.1601 43.52 54.9148 43.4293 54.7228 43.248C54.5308 43.056 54.4348 42.816 54.4348 42.528C54.4348 42.24 54.5308 42 54.7228 41.808C54.9148 41.616 55.1601 41.52 55.4588 41.52ZM63.5104 53.616C62.9557 54 62.3264 54.192 61.6224 54.192C60.9077 54.192 60.3477 53.9893 59.9424 53.584C59.5477 53.168 59.3504 52.5707 59.3504 51.792V46.704H57.8784V45.568H59.3504V43.664L60.8224 43.488V45.568H62.8224L62.6624 46.704H60.8224V51.728C60.8224 52.1653 60.897 52.4853 61.0464 52.688C61.2064 52.88 61.4677 52.976 61.8304 52.976C62.161 52.976 62.5344 52.864 62.9504 52.64L63.5104 53.616ZM66.5076 45.568V54H65.0356V45.568H66.5076ZM65.7556 41.52C66.065 41.52 66.3156 41.616 66.5076 41.808C66.6996 42 66.7956 42.24 66.7956 42.528C66.7956 42.816 66.6996 43.056 66.5076 43.248C66.3156 43.4293 66.065 43.52 65.7556 43.52C65.457 43.52 65.2116 43.4293 65.0196 43.248C64.8276 43.056 64.7316 42.816 64.7316 42.528C64.7316 42.24 64.8276 42 65.0196 41.808C65.2116 41.616 65.457 41.52 65.7556 41.52ZM73.5193 45.376C74.2873 45.376 74.8846 45.6053 75.3113 46.064C75.7486 46.5227 75.9673 47.152 75.9673 47.952V54H74.4953V48.16C74.4953 47.5627 74.3833 47.1413 74.1593 46.896C73.9353 46.6507 73.6046 46.528 73.1673 46.528C72.7193 46.528 72.3246 46.656 71.9833 46.912C71.6419 47.168 71.3219 47.536 71.0233 48.016V54H69.5513V45.568H70.8153L70.9433 46.816C71.2419 46.368 71.6099 46.016 72.0473 45.76C72.4953 45.504 72.9859 45.376 73.5193 45.376ZM85.7263 45.952C85.4063 46.0587 85.0543 46.128 84.6703 46.16C84.2863 46.192 83.8169 46.208 83.2623 46.208C84.2543 46.656 84.7503 47.3653 84.7503 48.336C84.7503 49.1787 84.4623 49.8667 83.8863 50.4C83.3103 50.9333 82.5263 51.2 81.5343 51.2C81.1503 51.2 80.7929 51.1467 80.4623 51.04C80.3343 51.1253 80.2329 51.2427 80.1583 51.392C80.0836 51.5307 80.0463 51.6747 80.0463 51.824C80.0463 52.2827 80.4143 52.512 81.1503 52.512H82.4943C83.0596 52.512 83.5609 52.6133 83.9983 52.816C84.4356 53.0187 84.7716 53.296 85.0063 53.648C85.2516 54 85.3743 54.4 85.3743 54.848C85.3743 55.6693 85.0383 56.2987 84.3663 56.736C83.6943 57.184 82.7129 57.408 81.4223 57.408C80.5156 57.408 79.7956 57.312 79.2623 57.12C78.7396 56.9387 78.3663 56.6613 78.1423 56.288C77.9183 55.9147 77.8063 55.4347 77.8063 54.848H79.1343C79.1343 55.1893 79.1983 55.456 79.3263 55.648C79.4543 55.8507 79.6836 56 80.0143 56.096C80.3449 56.2027 80.8143 56.256 81.4223 56.256C82.3076 56.256 82.9369 56.144 83.3103 55.92C83.6943 55.7067 83.8863 55.3813 83.8863 54.944C83.8863 54.5493 83.7369 54.2507 83.4383 54.048C83.1396 53.8453 82.7236 53.744 82.1903 53.744H80.8623C80.1476 53.744 79.6036 53.5947 79.2303 53.296C78.8676 52.9867 78.6863 52.6027 78.6863 52.144C78.6863 51.8667 78.7663 51.6 78.9263 51.344C79.0863 51.088 79.3156 50.8587 79.6143 50.656C79.1236 50.4 78.7609 50.0853 78.5263 49.712C78.3023 49.328 78.1903 48.864 78.1903 48.32C78.1903 47.7547 78.3289 47.248 78.6063 46.8C78.8943 46.352 79.2836 46.0053 79.7743 45.76C80.2756 45.504 80.8303 45.376 81.4383 45.376C82.0996 45.3867 82.6543 45.3653 83.1023 45.312C83.5503 45.248 83.9183 45.168 84.2063 45.072C84.5049 44.9653 84.8676 44.816 85.2943 44.624L85.7263 45.952ZM81.4383 46.432C80.8836 46.432 80.4516 46.608 80.1423 46.96C79.8436 47.3013 79.6943 47.7547 79.6943 48.32C79.6943 48.896 79.8489 49.36 80.1583 49.712C80.4676 50.0533 80.9049 50.224 81.4703 50.224C82.0463 50.224 82.4836 50.0587 82.7823 49.728C83.0916 49.3867 83.2463 48.912 83.2463 48.304C83.2463 47.056 82.6436 46.432 81.4383 46.432Z" fill="#111238"/>
<defs>
<clipPath id="clip0_8_253">
<rect width="24" height="24" fill="white" transform="translate(31)"/>
</clipPath>
</defs>
</svg>
