<svg width="98" height="58" viewBox="0 0 98 58" fill="none" xmlns="http://www.w3.org/2000/svg">
<path d="M56.6364 0H41.3637C39.9176 0.00173221 38.5312 0.576962 37.5086 1.59951C36.4861 2.62206 35.9109 4.00844 35.9091 5.45455V18.5455C35.9109 19.9916 36.4861 21.3779 37.5086 22.4005C38.5312 23.423 39.9176 23.9983 41.3637 24H56.6364C58.0825 23.9983 59.4689 23.423 60.4914 22.4005C61.514 21.3779 62.0892 19.9916 62.0909 18.5455V5.45455C62.0892 4.00844 61.514 2.62206 60.4914 1.59951C59.4689 0.576962 58.0825 0.00173221 56.6364 0ZM41.3637 2.18182H56.6364C57.5044 2.18182 58.3368 2.52662 58.9506 3.14038C59.5643 3.75413 59.9091 4.58656 59.9091 5.45455V6.54545H38.0909V5.45455C38.0909 4.58656 38.4357 3.75413 39.0495 3.14038C39.6633 2.52662 40.4957 2.18182 41.3637 2.18182ZM56.6364 21.8182H41.3637C40.4957 21.8182 39.6633 21.4734 39.0495 20.8596C38.4357 20.2459 38.0909 19.4134 38.0909 18.5455V8.72727H59.9091V18.5455C59.9091 19.4134 59.5643 20.2459 58.9506 20.8596C58.3368 21.4734 57.5044 21.8182 56.6364 21.8182ZM56.6364 13.0909C56.6364 13.3802 56.5215 13.6577 56.3169 13.8623C56.1123 14.0669 55.8348 14.1818 55.5455 14.1818H42.4546C42.1652 14.1818 41.8878 14.0669 41.6832 13.8623C41.4786 13.6577 41.3637 13.3802 41.3637 13.0909C41.3637 12.8016 41.4786 12.5241 41.6832 12.3195C41.8878 12.1149 42.1652 12 42.4546 12H55.5455C55.8348 12 56.1123 12.1149 56.3169 12.3195C56.5215 12.5241 56.6364 12.8016 56.6364 13.0909ZM52.2728 17.4545C52.2728 17.7439 52.1578 18.0214 51.9532 18.2259C51.7487 18.4305 51.4712 18.5455 51.1818 18.5455H42.4546C42.1652 18.5455 41.8878 18.4305 41.6832 18.2259C41.4786 18.0214 41.3637 17.7439 41.3637 17.4545C41.3637 17.1652 41.4786 16.8877 41.6832 16.6832C41.8878 16.4786 42.1652 16.3636 42.4546 16.3636H51.1818C51.4712 16.3636 51.7487 16.4786 51.9532 16.6832C52.1578 16.8877 52.2728 17.1652 52.2728 17.4545ZM39.1818 4.36364C39.1818 4.14787 39.2458 3.93696 39.3657 3.75756C39.4856 3.57816 39.6559 3.43834 39.8553 3.35577C40.0546 3.2732 40.274 3.2516 40.4856 3.29369C40.6972 3.33578 40.8916 3.43968 41.0441 3.59225C41.1967 3.74481 41.3006 3.9392 41.3427 4.15081C41.3848 4.36243 41.3632 4.58177 41.2806 4.78111C41.1981 4.98045 41.0582 5.15082 40.8788 5.27069C40.6994 5.39056 40.4885 5.45455 40.2728 5.45455C39.9834 5.45455 39.706 5.33961 39.5014 5.13503C39.2968 4.93044 39.1818 4.65296 39.1818 4.36364ZM42.4546 4.36364C42.4546 4.14787 42.5186 3.93696 42.6384 3.75756C42.7583 3.57816 42.9287 3.43834 43.128 3.35577C43.3273 3.2732 43.5467 3.2516 43.7583 3.29369C43.9699 3.33578 44.1643 3.43968 44.3169 3.59225C44.4694 3.74481 44.5733 3.9392 44.6154 4.15081C44.6575 4.36243 44.6359 4.58177 44.5534 4.78111C44.4708 4.98045 44.331 5.15082 44.1516 5.27069C43.9722 5.39056 43.7612 5.45455 43.5455 5.45455C43.2562 5.45455 42.9787 5.33961 42.7741 5.13503C42.5695 4.93044 42.4546 4.65296 42.4546 4.36364ZM45.7273 4.36364C45.7273 4.14787 45.7913 3.93696 45.9112 3.75756C46.031 3.57816 46.2014 3.43834 46.4007 3.35577C46.6001 3.2732 46.8194 3.2516 47.031 3.29369C47.2427 3.33578 47.437 3.43968 47.5896 3.59225C47.7422 3.74481 47.8461 3.9392 47.8882 4.15081C47.9303 4.36243 47.9086 4.58177 47.8261 4.78111C47.7435 4.98045 47.6037 5.15082 47.4243 5.27069C47.2449 5.39056 47.034 5.45455 46.8182 5.45455C46.5289 5.45455 46.2514 5.33961 46.0468 5.13503C45.8422 4.93044 45.7273 4.65296 45.7273 4.36364Z" fill="#111238"/>
<path d="M4.63838 42.976C6.30238 42.976 7.63571 43.3653 8.63838 44.144C9.65171 44.912 10.1584 46.3413 10.1584 48.432C10.1584 50.4693 9.65171 51.9093 8.63838 52.752C7.63571 53.584 6.41438 54 4.97438 54H2.33438V42.976H4.63838ZM3.85438 44.192V52.8H5.08638C6.11038 52.8 6.94238 52.4853 7.58238 51.856C8.22238 51.2267 8.54238 50.0853 8.54238 48.432C8.54238 47.2693 8.37704 46.3787 8.04638 45.76C7.71571 45.1307 7.29438 44.7147 6.78238 44.512C6.27038 44.2987 5.66771 44.192 4.97438 44.192H3.85438ZM18.9193 49.536C18.9193 49.7813 18.9086 50.032 18.8873 50.288H13.5113C13.5753 51.216 13.8099 51.8987 14.2153 52.336C14.6206 52.7733 15.1433 52.992 15.7833 52.992C16.1886 52.992 16.5619 52.9333 16.9033 52.816C17.2446 52.6987 17.6019 52.512 17.9753 52.256L18.6153 53.136C17.7193 53.84 16.7379 54.192 15.6713 54.192C14.4979 54.192 13.5806 53.808 12.9193 53.04C12.2686 52.272 11.9433 51.216 11.9433 49.872C11.9433 48.9973 12.0819 48.224 12.3593 47.552C12.6473 46.8693 13.0526 46.336 13.5753 45.952C14.1086 45.568 14.7326 45.376 15.4473 45.376C16.5673 45.376 17.4259 45.744 18.0233 46.48C18.6206 47.216 18.9193 48.2347 18.9193 49.536ZM17.4633 49.104C17.4633 48.272 17.2979 47.6373 16.9673 47.2C16.6366 46.7627 16.1406 46.544 15.4793 46.544C14.2739 46.544 13.6179 47.4293 13.5113 49.2H17.4633V49.104ZM27.3995 45.568L24.5355 54H22.7595L19.8475 45.568H21.4475L23.6555 52.688L25.8475 45.568H27.3995ZM35.388 49.536C35.388 49.7813 35.3773 50.032 35.356 50.288H29.98C30.044 51.216 30.2787 51.8987 30.684 52.336C31.0893 52.7733 31.612 52.992 32.252 52.992C32.6573 52.992 33.0307 52.9333 33.372 52.816C33.7133 52.6987 34.0707 52.512 34.444 52.256L35.084 53.136C34.188 53.84 33.2067 54.192 32.14 54.192C30.9667 54.192 30.0493 53.808 29.388 53.04C28.7373 52.272 28.412 51.216 28.412 49.872C28.412 48.9973 28.5507 48.224 28.828 47.552C29.116 46.8693 29.5213 46.336 30.044 45.952C30.5773 45.568 31.2013 45.376 31.916 45.376C33.036 45.376 33.8947 45.744 34.492 46.48C35.0893 47.216 35.388 48.2347 35.388 49.536ZM33.932 49.104C33.932 48.272 33.7667 47.6373 33.436 47.2C33.1053 46.7627 32.6093 46.544 31.948 46.544C30.7427 46.544 30.0867 47.4293 29.98 49.2H33.932V49.104ZM39.4188 54.192C38.8748 54.192 38.4428 54.032 38.1228 53.712C37.8134 53.3813 37.6588 52.9227 37.6588 52.336V42.176L39.1308 42V52.304C39.1308 52.5387 39.1681 52.7093 39.2428 52.816C39.3281 52.9227 39.4668 52.976 39.6588 52.976C39.8614 52.976 40.0428 52.944 40.2028 52.88L40.5868 53.904C40.2348 54.096 39.8454 54.192 39.4188 54.192ZM45.5161 45.376C46.7001 45.376 47.6175 45.7707 48.2681 46.56C48.9295 47.3493 49.2601 48.4213 49.2601 49.776C49.2601 50.6507 49.1108 51.424 48.8121 52.096C48.5135 52.7573 48.0815 53.2747 47.5161 53.648C46.9508 54.0107 46.2788 54.192 45.5001 54.192C44.3161 54.192 43.3935 53.7973 42.7321 53.008C42.0708 52.2187 41.7401 51.1467 41.7401 49.792C41.7401 48.9173 41.8895 48.1493 42.1881 47.488C42.4868 46.816 42.9188 46.2987 43.4841 45.936C44.0495 45.5627 44.7268 45.376 45.5161 45.376ZM45.5161 46.56C44.0548 46.56 43.3241 47.6373 43.3241 49.792C43.3241 51.936 44.0495 53.008 45.5001 53.008C46.9508 53.008 47.6761 51.9307 47.6761 49.776C47.6761 47.632 46.9561 46.56 45.5161 46.56ZM55.5639 45.376C56.6412 45.376 57.4305 45.76 57.9319 46.528C58.4332 47.296 58.6839 48.3787 58.6839 49.776C58.6839 51.0987 58.3959 52.1653 57.8199 52.976C57.2439 53.7867 56.4279 54.192 55.3719 54.192C54.4332 54.192 53.6972 53.872 53.1639 53.232V57.232L51.6919 57.408V45.568H52.9559L53.0679 46.704C53.3772 46.2773 53.7505 45.952 54.1879 45.728C54.6252 45.4933 55.0839 45.376 55.5639 45.376ZM55.0199 52.992C56.4065 52.992 57.0999 51.92 57.0999 49.776C57.0999 47.6213 56.4652 46.544 55.1959 46.544C54.7799 46.544 54.4012 46.6667 54.0599 46.912C53.7185 47.1573 53.4199 47.472 53.1639 47.856V51.968C53.3772 52.2987 53.6439 52.5547 53.9639 52.736C54.2839 52.9067 54.6359 52.992 55.0199 52.992ZM69.6559 45.376C70.3492 45.376 70.9039 45.6107 71.3199 46.08C71.7359 46.5387 71.9439 47.1627 71.9439 47.952V54H70.4719V48.16C70.4719 47.072 70.0772 46.528 69.2879 46.528C68.8719 46.528 68.5199 46.6507 68.2319 46.896C67.9439 47.1307 67.6345 47.504 67.3039 48.016V54H65.8319V48.16C65.8319 47.072 65.4372 46.528 64.6479 46.528C64.2212 46.528 63.8639 46.6507 63.5759 46.896C63.2879 47.1413 62.9839 47.5147 62.6639 48.016V54H61.1919V45.568H62.4559L62.5839 46.8C63.2132 45.8507 64.0239 45.376 65.0159 45.376C65.5385 45.376 65.9812 45.5093 66.3439 45.776C66.7172 46.0427 66.9839 46.416 67.1439 46.896C67.4745 46.4053 67.8372 46.032 68.2319 45.776C68.6372 45.5093 69.1119 45.376 69.6559 45.376ZM81.2786 49.536C81.2786 49.7813 81.268 50.032 81.2466 50.288H75.8706C75.9346 51.216 76.1693 51.8987 76.5746 52.336C76.98 52.7733 77.5026 52.992 78.1426 52.992C78.548 52.992 78.9213 52.9333 79.2626 52.816C79.604 52.6987 79.9613 52.512 80.3346 52.256L80.9746 53.136C80.0786 53.84 79.0973 54.192 78.0306 54.192C76.8573 54.192 75.94 53.808 75.2786 53.04C74.628 52.272 74.3026 51.216 74.3026 49.872C74.3026 48.9973 74.4413 48.224 74.7186 47.552C75.0066 46.8693 75.412 46.336 75.9346 45.952C76.468 45.568 77.092 45.376 77.8066 45.376C78.9266 45.376 79.7853 45.744 80.3826 46.48C80.98 47.216 81.2786 48.2347 81.2786 49.536ZM79.8226 49.104C79.8226 48.272 79.6573 47.6373 79.3266 47.2C78.996 46.7627 78.5 46.544 77.8386 46.544C76.6333 46.544 75.9773 47.4293 75.8706 49.2H79.8226V49.104ZM87.5974 45.376C88.3654 45.376 88.9627 45.6053 89.3894 46.064C89.8267 46.5227 90.0454 47.152 90.0454 47.952V54H88.5734V48.16C88.5734 47.5627 88.4614 47.1413 88.2374 46.896C88.0134 46.6507 87.6827 46.528 87.2454 46.528C86.7974 46.528 86.4027 46.656 86.0614 46.912C85.72 47.168 85.4 47.536 85.1014 48.016V54H83.6294V45.568H84.8934L85.0214 46.816C85.32 46.368 85.688 46.016 86.1254 45.76C86.5734 45.504 87.064 45.376 87.5974 45.376ZM97.2604 53.616C96.7057 54 96.0764 54.192 95.3724 54.192C94.6577 54.192 94.0977 53.9893 93.6924 53.584C93.2977 53.168 93.1004 52.5707 93.1004 51.792V46.704H91.6284V45.568H93.1004V43.664L94.5724 43.488V45.568H96.5724L96.4124 46.704H94.5724V51.728C94.5724 52.1653 94.647 52.4853 94.7964 52.688C94.9564 52.88 95.2177 52.976 95.5804 52.976C95.911 52.976 96.2844 52.864 96.7004 52.64L97.2604 53.616Z" fill="#111238"/>
</svg>
