<svg width="46" height="59" viewBox="0 0 46 59" fill="none" xmlns="http://www.w3.org/2000/svg">
<path d="M17.465 22.2851C17.2465 22.285 17.0339 22.2133 16.8599 22.081C16.686 21.9486 16.5601 21.7629 16.5017 21.5523C16.4433 21.3417 16.4555 21.1177 16.5365 20.9146C16.6175 20.7116 16.7627 20.5407 16.95 20.4281C20.493 18.3001 20.493 13.7301 20.493 11.0001C20.493 10.2044 20.8091 9.44134 21.3717 8.87873C21.9343 8.31612 22.6974 8.00005 23.493 8.00005C24.2887 8.00005 25.0518 8.31612 25.6144 8.87873C26.177 9.44134 26.493 10.2044 26.493 11.0001C26.493 11.2653 26.3877 11.5196 26.2001 11.7072C26.0126 11.8947 25.7583 12.0001 25.493 12.0001C25.2278 12.0001 24.9735 11.8947 24.7859 11.7072C24.5984 11.5196 24.493 11.2653 24.493 11.0001C24.493 10.7348 24.3877 10.4805 24.2001 10.2929C24.0126 10.1054 23.7583 10.0001 23.493 10.0001C23.2278 10.0001 22.9735 10.1054 22.7859 10.2929C22.5984 10.4805 22.493 10.7348 22.493 11.0001C22.493 13.9471 22.493 19.4341 17.979 22.1431C17.8237 22.236 17.6461 22.2851 17.465 22.2851ZM22.428 23.7061C24.71 21.4061 26.043 18.1721 26.389 14.0851C26.4007 13.9539 26.3864 13.8218 26.3469 13.6963C26.3074 13.5707 26.2435 13.4542 26.1588 13.3534C26.0742 13.2526 25.9705 13.1695 25.8537 13.1089C25.7368 13.0482 25.6092 13.0112 25.478 13.0001C25.3468 12.9866 25.2142 12.9997 25.0882 13.0385C24.9621 13.0774 24.8452 13.1412 24.7443 13.2262C24.6434 13.3113 24.5607 13.4157 24.501 13.5333C24.4414 13.651 24.406 13.7794 24.397 13.9111C24.086 17.5681 22.978 20.3111 21.009 22.2921C20.8221 22.4802 20.7175 22.735 20.7183 23.0002C20.7192 23.2655 20.8254 23.5196 21.0135 23.7066C21.2017 23.8935 21.4565 23.9981 21.7217 23.9973C21.987 23.9964 22.2411 23.8902 22.428 23.7021V23.7061ZM27.628 23.5201C28.2346 22.5122 28.7398 21.4466 29.136 20.3391C29.2189 20.0913 29.2015 19.821 29.0877 19.586C28.9738 19.3509 28.7725 19.1697 28.5268 19.0811C28.281 18.9926 28.0104 19.0037 27.7728 19.112C27.5351 19.2204 27.3493 19.4175 27.255 19.6611C26.9029 20.6431 26.4548 21.588 25.917 22.4821C25.8489 22.5944 25.8035 22.7191 25.7836 22.8489C25.7636 22.9788 25.7694 23.1114 25.8006 23.239C25.8319 23.3666 25.888 23.4869 25.9657 23.5928C26.0434 23.6988 26.1412 23.7884 26.2535 23.8566C26.4804 23.9942 26.7527 24.0361 27.0105 23.973C27.1381 23.9417 27.2583 23.8856 27.3643 23.8079C27.4703 23.7302 27.5599 23.6324 27.628 23.5201ZM29.993 17.1911C30.3635 15.1489 30.531 13.0752 30.493 11.0001C30.4921 9.58335 30.0613 8.20028 29.2576 7.03361C28.4539 5.86694 27.3151 4.9716 25.9918 4.46589C24.6684 3.96019 23.2227 3.86793 21.8458 4.20131C20.4689 4.53469 19.2255 5.27801 18.28 6.33305C18.188 6.43005 18.1163 6.54454 18.0692 6.66974C18.0222 6.79494 18.0007 6.92831 18.0061 7.06194C18.0115 7.19558 18.0437 7.32678 18.1007 7.44777C18.1577 7.56876 18.2384 7.67708 18.338 7.76633C18.4376 7.85557 18.5542 7.92393 18.6807 7.96735C18.8072 8.01077 18.9411 8.02838 19.0745 8.01912C19.2079 8.00986 19.3382 7.97394 19.4575 7.91346C19.5768 7.85299 19.6827 7.7692 19.769 7.66705C20.4443 6.91333 21.3324 6.38226 22.3159 6.14402C23.2995 5.90578 24.3322 5.97159 25.2775 6.33276C26.2228 6.69392 27.0363 7.33344 27.6105 8.16678C28.1846 9.00013 28.4923 9.98807 28.493 11.0001C28.5299 12.9469 28.3752 14.8926 28.031 16.8091C27.9805 17.0692 28.0354 17.3388 28.1835 17.5585C28.3316 17.7783 28.5609 17.9303 28.821 17.9811C28.8846 17.9938 28.9492 18.0001 29.014 18.0001C29.2457 17.9995 29.4699 17.9185 29.6485 17.7709C29.827 17.6234 29.9488 17.4184 29.993 17.1911ZM18.493 11.0001C18.4928 10.7209 18.5158 10.4423 18.562 10.1671C18.5919 10.0345 18.5945 9.89734 18.5695 9.76381C18.5446 9.63028 18.4928 9.50322 18.4171 9.3904C18.3415 9.27757 18.2437 9.18133 18.1296 9.10756C18.0156 9.03379 17.8877 8.98403 17.7537 8.96131C17.6198 8.93859 17.4827 8.9434 17.3507 8.97543C17.2187 9.00746 17.0946 9.06606 16.986 9.14763C16.8774 9.2292 16.7865 9.33205 16.7189 9.44989C16.6514 9.56773 16.6086 9.69811 16.593 9.83305C16.527 10.2186 16.4936 10.6089 16.493 11.0001C16.493 15.6451 15.147 18.0001 12.493 18.0001C12.2278 18.0001 11.9735 18.1054 11.7859 18.2929C11.5984 18.4805 11.493 18.7348 11.493 19.0001C11.493 19.2653 11.5984 19.5196 11.7859 19.7072C11.9735 19.8947 12.2278 20.0001 12.493 20.0001C16.362 20.0001 18.493 16.8001 18.493 11.0001ZM32.193 23.4141C33.8387 19.4882 34.623 15.2549 34.493 11.0001C34.4977 9.33897 34.1213 7.69896 33.393 6.20605C33.3356 6.08786 33.2554 5.98215 33.1571 5.89494C33.0588 5.80773 32.9443 5.74074 32.8201 5.6978C32.6959 5.65485 32.5644 5.63678 32.4333 5.64464C32.3021 5.65249 32.1737 5.6861 32.0555 5.74355C31.9374 5.801 31.8316 5.88117 31.7444 5.97948C31.6572 6.07779 31.5902 6.19232 31.5473 6.31651C31.5043 6.44071 31.4863 6.57215 31.4941 6.70333C31.502 6.83451 31.5356 6.96286 31.593 7.08105C32.1881 8.30162 32.4959 9.64217 32.493 11.0001C32.6189 14.9688 31.8965 18.9188 30.374 22.5861C30.3198 22.7058 30.2898 22.8351 30.2856 22.9664C30.2814 23.0978 30.3031 23.2287 30.3495 23.3517C30.396 23.4747 30.4662 23.5873 30.5562 23.6831C30.6462 23.7789 30.7542 23.856 30.874 23.9101C31.0036 23.9696 31.1445 24.0003 31.287 24.0001C31.4783 23.9992 31.6653 23.9436 31.8259 23.8397C31.9864 23.7359 32.1139 23.5881 32.193 23.4141ZM14.493 14.0001V11.0001C14.4957 8.61392 15.4448 6.32627 17.132 4.63901C18.8193 2.95176 21.1069 2.0027 23.493 2.00005C25.4414 1.99356 27.3382 2.62583 28.893 3.80005C29.1052 3.95918 29.3719 4.02751 29.6345 3.99C29.897 3.95249 30.1339 3.81222 30.293 3.60005C30.4522 3.38788 30.5205 3.12118 30.483 2.85863C30.4455 2.59608 30.3052 2.35918 30.093 2.20005C28.1924 0.765473 25.8743 -0.0072348 23.493 5.10545e-05C20.5767 0.00349153 17.7808 1.16352 15.7187 3.22568C13.6565 5.28783 12.4965 8.08373 12.493 11.0001V14.0001C12.493 14.2653 12.5984 14.5196 12.7859 14.7072C12.9735 14.8947 13.2278 15.0001 13.493 15.0001C13.7583 15.0001 14.0126 14.8947 14.2001 14.7072C14.3877 14.5196 14.493 14.2653 14.493 14.0001Z" fill="#111238"/>
<path d="M4.85906 42.7856C5.59506 42.7856 6.2244 42.8923 6.74706 43.1056C7.26973 43.3083 7.7764 43.6283 8.26706 44.0656L7.43506 44.9936C7.01906 44.663 6.6084 44.423 6.20306 44.2736C5.8084 44.1136 5.38173 44.0336 4.92306 44.0336C4.34706 44.0336 3.8724 44.167 3.49906 44.4336C3.12573 44.7003 2.93906 45.0896 2.93906 45.6016C2.93906 45.9216 3.00306 46.1936 3.13106 46.4176C3.25906 46.631 3.49373 46.8283 3.83506 47.0096C4.18706 47.191 4.69373 47.383 5.35506 47.5856C6.0484 47.799 6.6244 48.0283 7.08306 48.2736C7.54173 48.519 7.90973 48.8603 8.18706 49.2976C8.47506 49.7243 8.61906 50.2683 8.61906 50.9296C8.61906 51.5696 8.45906 52.135 8.13906 52.6256C7.82973 53.1163 7.3764 53.5003 6.77906 53.7776C6.1924 54.055 5.49373 54.1936 4.68306 54.1936C3.15773 54.1936 1.90973 53.719 0.939063 52.7696L1.77106 51.8416C2.21906 52.2043 2.6724 52.4816 3.13106 52.6736C3.58973 52.855 4.10173 52.9456 4.66706 52.9456C5.34973 52.9456 5.91506 52.7803 6.36306 52.4496C6.81106 52.1083 7.03506 51.6176 7.03506 50.9776C7.03506 50.615 6.96573 50.3163 6.82706 50.0816C6.6884 49.8363 6.4484 49.6176 6.10706 49.4256C5.7764 49.2336 5.29106 49.0416 4.65106 48.8496C3.5204 48.5083 2.69373 48.0976 2.17106 47.6176C1.6484 47.1376 1.38706 46.487 1.38706 45.6656C1.38706 45.111 1.53106 44.615 1.81906 44.1776C2.11773 43.7403 2.5284 43.399 3.05106 43.1536C3.5844 42.9083 4.18706 42.7856 4.85906 42.7856ZM16.4578 52.0336C16.4578 52.375 16.5165 52.631 16.6338 52.8016C16.7511 52.9616 16.9271 53.0843 17.1618 53.1696L16.8258 54.1936C16.3885 54.1403 16.0365 54.0176 15.7698 53.8256C15.5031 53.6336 15.3058 53.335 15.1778 52.9296C14.6125 53.7723 13.7751 54.1936 12.6658 54.1936C11.8338 54.1936 11.1778 53.959 10.6978 53.4896C10.2178 53.0203 9.97781 52.407 9.97781 51.6496C9.97781 50.7536 10.2978 50.0656 10.9378 49.5856C11.5885 49.1056 12.5058 48.8656 13.6898 48.8656H14.9858V48.2416C14.9858 47.6443 14.8418 47.2176 14.5538 46.9616C14.2658 46.7056 13.8231 46.5776 13.2258 46.5776C12.6071 46.5776 11.8498 46.727 10.9538 47.0256L10.5858 45.9536C11.6311 45.5696 12.6018 45.3776 13.4978 45.3776C14.4898 45.3776 15.2311 45.623 15.7218 46.1136C16.2125 46.5936 16.4578 47.2816 16.4578 48.1776V52.0336ZM13.0018 53.0896C13.8445 53.0896 14.5058 52.6523 14.9858 51.7776V49.8416H13.8818C12.3245 49.8416 11.5458 50.4176 11.5458 51.5696C11.5458 52.071 11.6685 52.4496 11.9138 52.7056C12.1591 52.9616 12.5218 53.0896 13.0018 53.0896ZM22.3449 43.1856C21.8969 43.1856 21.5769 43.287 21.3849 43.4896C21.1929 43.6816 21.0969 43.9856 21.0969 44.4016V45.5696H23.1449L22.9849 46.7056H21.0969V54.0016H19.6249V46.7056H18.1209V45.5696H19.6249V44.4176C19.6249 43.6923 19.8543 43.111 20.3129 42.6736C20.7823 42.2256 21.4329 42.0016 22.2649 42.0016C22.6489 42.0016 22.9903 42.039 23.2889 42.1136C23.5983 42.1776 23.9289 42.2843 24.2809 42.4336L23.8169 43.5056C23.3369 43.2923 22.8463 43.1856 22.3449 43.1856ZM31.0521 49.5376C31.0521 49.783 31.0414 50.0336 31.0201 50.2896H25.6441C25.7081 51.2176 25.9427 51.9003 26.3481 52.3376C26.7534 52.775 27.2761 52.9936 27.9161 52.9936C28.3214 52.9936 28.6947 52.935 29.0361 52.8176C29.3774 52.7003 29.7347 52.5136 30.1081 52.2576L30.7481 53.1376C29.8521 53.8416 28.8707 54.1936 27.8041 54.1936C26.6307 54.1936 25.7134 53.8096 25.0521 53.0416C24.4014 52.2736 24.0761 51.2176 24.0761 49.8736C24.0761 48.999 24.2147 48.2256 24.4921 47.5536C24.7801 46.871 25.1854 46.3376 25.7081 45.9536C26.2414 45.5696 26.8654 45.3776 27.5801 45.3776C28.7001 45.3776 29.5587 45.7456 30.1561 46.4816C30.7534 47.2176 31.0521 48.2363 31.0521 49.5376ZM29.5961 49.1056C29.5961 48.2736 29.4307 47.639 29.1001 47.2016C28.7694 46.7643 28.2734 46.5456 27.6121 46.5456C26.4067 46.5456 25.7507 47.431 25.6441 49.2016H29.5961V49.1056ZM37.6588 53.6176C37.1041 54.0016 36.4748 54.1936 35.7708 54.1936C35.0561 54.1936 34.4961 53.991 34.0908 53.5856C33.6961 53.1696 33.4988 52.5723 33.4988 51.7936V46.7056H32.0268V45.5696H33.4988V43.6656L34.9708 43.4896V45.5696H36.9708L36.8108 46.7056H34.9708V51.7296C34.9708 52.167 35.0455 52.487 35.1948 52.6896C35.3548 52.8816 35.6161 52.9776 35.9788 52.9776C36.3095 52.9776 36.6828 52.8656 37.0988 52.6416L37.6588 53.6176ZM42.4819 54.0496C42.1513 55.031 41.6873 55.8043 41.0899 56.3696C40.5033 56.9456 39.6606 57.2923 38.5619 57.4096L38.4019 56.2576C38.9566 56.1616 39.3993 56.023 39.7299 55.8416C40.0606 55.6603 40.3219 55.4256 40.5139 55.1376C40.7166 54.8603 40.9033 54.4816 41.0739 54.0016H40.5779L37.7459 45.5696H39.3139L41.5699 52.9296L43.7779 45.5696H45.2979L42.4819 54.0496Z" fill="#111238"/>
</svg>
