<svg width="42" height="59" viewBox="0 0 42 59" fill="none" xmlns="http://www.w3.org/2000/svg">
<g clip-path="url(#clip0_8_263)">
<path d="M31.9 8.95672C31.5689 8.78894 31.1975 8.71724 30.8277 8.74976C30.458 8.78229 30.1047 8.91772 29.808 9.14072L27.975 10.5017C27.8495 9.26901 27.2714 8.1266 26.3525 7.29541C25.4336 6.46421 24.2391 6.00327 23 6.00172H22.915L18.793 1.88072C18.5153 1.60106 18.1848 1.37934 17.8207 1.22845C17.4566 1.07756 17.0661 1.00049 16.672 1.00172H10C9.73478 1.00172 9.48043 1.10708 9.29289 1.29462C9.10536 1.48215 9 1.73651 9 2.00172C9 2.26694 9.10536 2.52129 9.29289 2.70883C9.48043 2.89637 9.73478 3.00172 10 3.00172H16.672C16.9371 3.00243 17.1911 3.10773 17.379 3.29472L20.086 6.00172H14C12.6744 6.00331 11.4036 6.53061 10.4662 7.46794C9.52888 8.40528 9.00159 9.67613 9 11.0017L9 19.0017C9.00159 20.3273 9.52888 21.5982 10.4662 22.5355C11.4036 23.4728 12.6744 24.0001 14 24.0017H23C24.2391 24.0002 25.4336 23.5392 26.3525 22.708C27.2714 21.8768 27.8495 20.7344 27.975 19.5017L29.805 20.8657C30.1021 21.0886 30.4555 21.2243 30.8254 21.2576C31.1953 21.291 31.5672 21.2207 31.8994 21.0546C32.2316 20.8885 32.511 20.6331 32.7063 20.3172C32.9016 20.0012 33.005 19.6371 33.005 19.2657V10.7447C33.0063 10.3732 32.9034 10.0088 32.7081 9.69275C32.5128 9.37671 32.2329 9.12173 31.9 8.95672ZM26 19.0017C26 19.7974 25.6839 20.5604 25.1213 21.123C24.5587 21.6857 23.7956 22.0017 23 22.0017H14C13.2044 22.0017 12.4413 21.6857 11.8787 21.123C11.3161 20.5604 11 19.7974 11 19.0017V11.0017C11 10.2061 11.3161 9.44301 11.8787 8.8804C12.4413 8.31779 13.2044 8.00172 14 8.00172H23C23.7956 8.00172 24.5587 8.31779 25.1213 8.8804C25.6839 9.44301 26 10.2061 26 11.0017V19.0017ZM31 19.2587L28 17.0227V12.9807L31 10.7447V19.2587Z" fill="#111238"/>
</g>
<path d="M9.28438 42.9777L5.76438 54.0017H4.13238L0.580375 42.9777H2.21238L4.98038 52.3537L7.74838 42.9777H9.28438ZM12.367 45.5697V54.0017H10.895V45.5697H12.367ZM11.615 41.5217C11.9243 41.5217 12.175 41.6177 12.367 41.8097C12.559 42.0017 12.655 42.2417 12.655 42.5297C12.655 42.8177 12.559 43.0577 12.367 43.2497C12.175 43.431 11.9243 43.5217 11.615 43.5217C11.3163 43.5217 11.071 43.431 10.879 43.2497C10.687 43.0577 10.591 42.8177 10.591 42.5297C10.591 42.2417 10.687 42.0017 10.879 41.8097C11.071 41.6177 11.3163 41.5217 11.615 41.5217ZM21.9386 42.1777V54.0017H20.6426L20.4986 52.8337C20.2213 53.2604 19.8746 53.5964 19.4586 53.8417C19.0426 54.0764 18.5786 54.1937 18.0666 54.1937C17.064 54.1937 16.28 53.799 15.7146 53.0097C15.16 52.2204 14.8826 51.159 14.8826 49.8257C14.8826 48.9617 15.016 48.1937 15.2826 47.5217C15.5493 46.8497 15.9333 46.327 16.4346 45.9537C16.936 45.5697 17.5226 45.3777 18.1946 45.3777C19.0586 45.3777 19.816 45.7244 20.4666 46.4177V42.0017L21.9386 42.1777ZM18.3866 53.0257C18.8346 53.0257 19.2186 52.9244 19.5386 52.7217C19.8586 52.5084 20.168 52.1937 20.4666 51.7777V47.6497C20.1893 47.287 19.8906 47.015 19.5706 46.8337C19.2613 46.6417 18.9093 46.5457 18.5146 46.5457C17.864 46.5457 17.3573 46.8177 16.9946 47.3617C16.6426 47.9057 16.4666 48.7164 16.4666 49.7937C16.4666 50.8817 16.632 51.6924 16.9626 52.2257C17.2933 52.759 17.768 53.0257 18.3866 53.0257ZM31.3411 49.5377C31.3411 49.783 31.3305 50.0337 31.3091 50.2897H25.9331C25.9971 51.2177 26.2318 51.9004 26.6371 52.3377C27.0425 52.775 27.5651 52.9937 28.2051 52.9937C28.6105 52.9937 28.9838 52.935 29.3251 52.8177C29.6665 52.7004 30.0238 52.5137 30.3971 52.2577L31.0371 53.1377C30.1411 53.8417 29.1598 54.1937 28.0931 54.1937C26.9198 54.1937 26.0025 53.8097 25.3411 53.0417C24.6905 52.2737 24.3651 51.2177 24.3651 49.8737C24.3651 48.999 24.5038 48.2257 24.7811 47.5537C25.0691 46.871 25.4745 46.3377 25.9971 45.9537C26.5305 45.5697 27.1545 45.3777 27.8691 45.3777C28.9891 45.3777 29.8478 45.7457 30.4451 46.4817C31.0425 47.2177 31.3411 48.2364 31.3411 49.5377ZM29.8851 49.1057C29.8851 48.2737 29.7198 47.639 29.3891 47.2017C29.0585 46.7644 28.5625 46.5457 27.9011 46.5457C26.6958 46.5457 26.0398 47.431 25.9331 49.2017H29.8851V49.1057ZM36.8599 45.3777C38.0439 45.3777 38.9612 45.7724 39.6119 46.5617C40.2732 47.351 40.6039 48.423 40.6039 49.7777C40.6039 50.6524 40.4545 51.4257 40.1559 52.0977C39.8572 52.759 39.4252 53.2764 38.8599 53.6497C38.2945 54.0124 37.6225 54.1937 36.8439 54.1937C35.6599 54.1937 34.7372 53.799 34.0759 53.0097C33.4145 52.2204 33.0839 51.1484 33.0839 49.7937C33.0839 48.919 33.2332 48.151 33.5319 47.4897C33.8305 46.8177 34.2625 46.3004 34.8279 45.9377C35.3932 45.5644 36.0705 45.3777 36.8599 45.3777ZM36.8599 46.5617C35.3985 46.5617 34.6679 47.639 34.6679 49.7937C34.6679 51.9377 35.3932 53.0097 36.8439 53.0097C38.2945 53.0097 39.0199 51.9324 39.0199 49.7777C39.0199 47.6337 38.2999 46.5617 36.8599 46.5617Z" fill="#111238"/>
<defs>
<clipPath id="clip0_8_263">
<rect width="24" height="24" fill="white" transform="translate(9 0.00170898)"/>
</clipPath>
</defs>
</svg>
